<?xml version="1.0" standalone="no"?>
<!DOCTYPE svg PUBLIC "-//W3C//DTD SVG 20010904//EN"
 "http://www.w3.org/TR/2001/REC-SVG-20010904/DTD/svg10.dtd">
<svg version="1.0" xmlns="http://www.w3.org/2000/svg"
 width="126.000000pt" height="300.000000pt" viewBox="0 0 126.000000 300.000000"
 preserveAspectRatio="xMidYMid meet">
<metadata>
Created by potrace 1.13, written by Peter Selinger 2001-2015
</metadata>
<g transform="translate(0.000000,300.000000) scale(0.100000,-0.100000)"
fill="#000000" stroke="none">
<path d="M750 2974 c-19 -7 -43 -13 -53 -13 -10 -1 -54 -37 -98 -81 -71 -71
-85 -80 -117 -80 -81 0 -81 -46 0 -65 41 -9 44 -12 38 -35 -4 -16 -13 -25 -25
-25 -29 0 -95 -44 -95 -63 -1 -11 -32 -34 -83 -63 -68 -37 -91 -57 -135 -115
-65 -85 -107 -170 -128 -260 -21 -87 -13 -249 20 -448 l24 -140 -24 -305 c-27
-355 -38 -457 -61 -564 l-16 -77 33 -35 c19 -19 41 -37 50 -40 14 -5 18 -27
24 -139 6 -112 4 -145 -11 -200 -14 -54 -15 -71 -5 -86 7 -11 12 -35 12 -53 0
-34 1 -35 58 -46 86 -17 212 -28 247 -21 16 3 56 2 89 -2 68 -9 136 5 136 28
0 18 -28 64 -49 82 -8 6 -31 12 -50 13 -33 0 -90 17 -66 18 6 1 10 72 10 193
l0 193 101 7 c114 7 176 21 194 43 16 19 11 98 -30 463 -31 277 -36 388 -20
512 18 136 14 130 71 123 43 -5 53 -3 75 18 38 36 66 87 79 143 11 48 13 51
51 59 40 8 86 51 77 73 -2 6 2 14 10 17 8 3 18 24 22 46 4 22 13 45 21 52 8 6
14 19 14 29 0 12 11 20 35 24 73 14 114 126 46 126 -24 0 -78 -59 -87 -95 -11
-46 -61 -84 -111 -85 -52 0 -88 -16 -108 -46 -18 -28 -74 -55 -117 -57 l-33
-2 -7 105 c-3 58 -16 136 -27 175 -31 102 -29 115 14 115 25 0 38 5 42 18 9
24 25 33 40 20 19 -15 16 -48 -8 -93 -28 -54 -28 -100 -2 -127 20 -20 24 -20
59 -7 45 17 49 27 25 59 -17 21 -21 22 -35 10 -13 -10 -20 -10 -28 -2 -8 8 -7
27 7 71 16 55 16 61 1 91 -19 39 -9 57 32 62 25 3 27 7 30 56 4 60 15 65 60
27 57 -48 68 -28 23 45 -27 45 -29 52 -21 106 8 63 -4 101 -55 169 -12 17 -25
42 -28 56 -10 40 -67 50 -137 23z"/>
</g>
</svg>
